# xmcd
#
# Track frame offsets:
# 150
# 16418
# 29806
# 48294
# 66711
# 82654
# 101862
# 124410
# 148520
# 163083
# 180963
# 200336
#
# Disc length: 2927 seconds
#
#
# Revision: 0
# Processed by: cddbd v1.5.1PL0 Copyright (c) Steve Scherf et al.
# Submitted via: FreeRIP 2.90 
#
DISCID=a80b6d0c
DTITLE=Billy Shepherd - Billy Shepherd
DYEAR=2004
DGENRE=Gospel
TTITLE0=Just Find Jesus
TTITLE1=Twang - Del Way
TTITLE2=Same Ol' Town
TTITLE3=Swinging Door
TTITLE4=Thankful For The Cross
TTITLE5=Granny Did
TTITLE6=Heal My Broken Heart
TTITLE7=After All These Years
TTITLE8=I Feel Jesus
TTITLE9=Cross Standing In The Way
TTITLE10=This Cross
TTITLE11=Christmas Love
EXTD=
EXTT0=
EXTT1=
EXTT2=
EXTT3=
EXTT4=
EXTT5=
EXTT6=
EXTT7=
EXTT8=
EXTT9=
EXTT10=
EXTT11=
PLAYORDER=
